<?xml version="1.0" encoding="UTF-8"?>
<svg xmlns="http://www.w3.org/2000/svg" width="1040" height="360" viewBox="0 0 1040 360">
<rect width="1040" height="360" rx="16" fill="#f4f6f8"/>
<style>
  text { font-family: "PingFang SC","Hiragino Sans GB","Noto Sans SC","Source Han Sans SC",sans-serif; fill: #1c2430; }
  .muted { fill: #5c6b7a; }
  .small { font-size: 13px; }
  .label { font-size: 15px; }
  .title { font-size: 18px; font-weight: 650; }
  .big { font-size: 22px; font-weight: 700; }
</style>
<text x="36" y="42" class="title">DNA 的四种碱基</text><rect x="38" y="71" width="232" height="260" rx="14" fill="#e4e9f0"/><rect x="36" y="68" width="232" height="260" rx="14" fill="#ffffff" stroke="#d5dce6" stroke-width="1.5"/><rect x="36" y="68" width="232" height="74" rx="14" fill="#dbeafe"/><rect x="36" y="128" width="232" height="14" fill="#dbeafe"/><text x="64" y="118" class="big" fill="#1d4ed8">A</text><text x="106" y="114" class="title" fill="#1d4ed8">腺嘌呤</text><text x="60" y="176" class="label">嘌呤 · 双环</text><text x="60" y="210" class="label">与 T 配对</text><rect x="60" y="232" width="110" height="28" rx="14" fill="#dbeafe"/><text x="115" y="251" text-anchor="middle" class="small" fill="#1d4ed8" font-weight="650">2 个氢键</text><rect x="290" y="71" width="232" height="260" rx="14" fill="#e4e9f0"/><rect x="288" y="68" width="232" height="260" rx="14" fill="#ffffff" stroke="#d5dce6" stroke-width="1.5"/><rect x="288" y="68" width="232" height="74" rx="14" fill="#ffedd5"/><rect x="288" y="128" width="232" height="14" fill="#ffedd5"/><text x="316" y="118" class="big" fill="#c2410c">T</text><text x="358" y="114" class="title" fill="#c2410c">胸腺嘧啶</text><text x="312" y="176" class="label">嘧啶 · 单环</text><text x="312" y="210" class="label">与 A 配对</text><rect x="312" y="232" width="110" height="28" rx="14" fill="#ffedd5"/><text x="367" y="251" text-anchor="middle" class="small" fill="#c2410c" font-weight="650">2 个氢键</text><rect x="542" y="71" width="232" height="260" rx="14" fill="#e4e9f0"/><rect x="540" y="68" width="232" height="260" rx="14" fill="#ffffff" stroke="#d5dce6" stroke-width="1.5"/><rect x="540" y="68" width="232" height="74" rx="14" fill="#d1fae5"/><rect x="540" y="128" width="232" height="14" fill="#d1fae5"/><text x="568" y="118" class="big" fill="#047857">G</text><text x="610" y="114" class="title" fill="#047857">鸟嘌呤</text><text x="564" y="176" class="label">嘌呤 · 双环</text><text x="564" y="210" class="label">与 C 配对</text><rect x="564" y="232" width="110" height="28" rx="14" fill="#d1fae5"/><text x="619" y="251" text-anchor="middle" class="small" fill="#047857" font-weight="650">3 个氢键</text><rect x="794" y="71" width="232" height="260" rx="14" fill="#e4e9f0"/><rect x="792" y="68" width="232" height="260" rx="14" fill="#ffffff" stroke="#d5dce6" stroke-width="1.5"/><rect x="792" y="68" width="232" height="74" rx="14" fill="#ede9fe"/><rect x="792" y="128" width="232" height="14" fill="#ede9fe"/><text x="820" y="118" class="big" fill="#6d28d9">C</text><text x="862" y="114" class="title" fill="#6d28d9">胞嘧啶</text><text x="816" y="176" class="label">嘧啶 · 单环</text><text x="816" y="210" class="label">与 G 配对</text><rect x="816" y="232" width="110" height="28" rx="14" fill="#ede9fe"/><text x="871" y="251" text-anchor="middle" class="small" fill="#6d28d9" font-weight="650">3 个氢键</text></svg>
